<svg height="512pt" viewBox="-43 0 512 512" width="512pt" xmlns="http://www.w3.org/2000/svg"><path d="m368 512h-309.332031c-32.40625 0-58.667969-26.261719-58.667969-58.667969v-394.664062c0-32.40625 26.261719-58.667969 58.667969-58.667969h309.332031c32.40625 0 58.667969 26.261719 58.667969 58.667969v394.664062c0 32.40625-26.261719 58.667969-58.667969 58.667969zm0 0" fill="#eceff1"/><g fill="#607d8b"><path d="m352 426.667969h-42.667969c-17.640625 0-32-14.359375-32-32v-64c0-17.644531 14.359375-32 32-32h42.667969c5.886719 0 10.667969 4.777343 10.667969 10.664062 0 5.890625-4.78125 10.667969-10.667969 10.667969h-42.667969c-5.886719 0-10.664062 4.800781-10.664062 10.667969v64c0 5.867187 4.777343 10.664062 10.664062 10.664062h32v-21.332031h-10.664062c-5.890625 0-10.667969-4.777344-10.667969-10.667969 0-5.886719 4.777344-10.664062 10.667969-10.664062h21.332031c5.886719 0 10.667969 4.777343 10.667969 10.664062v42.667969c0 5.886719-4.78125 10.667969-10.667969 10.667969zm0 0"/><path d="m213.332031 426.667969c-4.714843 0-8.875-3.09375-10.21875-7.597657l-32-106.664062c-1.683593-5.652344 1.515625-11.585938 7.148438-13.269531 5.632812-1.730469 11.582031 1.492187 13.289062 7.144531l21.78125 72.597656 21.78125-72.597656c1.707031-5.652344 7.597657-8.875 13.292969-7.144531 5.652344 1.683593 8.851562 7.617187 7.144531 13.269531l-32 106.664062c-1.34375 4.503907-5.503906 7.597657-10.21875 7.597657zm0 0"/><path d="m112 426.667969h-37.332031c-5.890625 0-10.667969-4.78125-10.667969-10.667969s4.777344-10.667969 10.667969-10.667969h37.332031c8.832031 0 16-7.1875 16-16 0-8.808593-7.167969-16-16-16h-10.667969c-20.585937 0-37.332031-16.746093-37.332031-37.332031s16.746094-37.332031 37.332031-37.332031h37.335938c5.886719 0 10.664062 4.777343 10.664062 10.664062 0 5.890625-4.777343 10.667969-10.664062 10.667969h-37.335938c-8.832031 0-16 7.1875-16 16s7.167969 16 16 16h10.667969c20.585938 0 37.332031 16.746094 37.332031 37.332031 0 20.589844-16.746093 37.335938-37.332031 37.335938zm0 0"/></g></svg>